<svg id="visual" viewBox="0 0 3840 2160" width="3840" height="2160" xmlns="http://www.w3.org/2000/svg" xmlns:xlink="http://www.w3.org/1999/xlink" version="1.1"><rect width="3840" height="2160" fill="#02122A"></rect><g><g transform="translate(69 2086)"><path d="M247.5 -304C331.2 -224.7 416.9 -156.6 452 -64C487 28.7 471.5 146 410.8 224.1C350.1 302.1 244.2 341 136.3 384.5C28.5 428.1 -81.2 476.4 -171.9 452.1C-262.6 427.9 -334.3 331.1 -396.7 227.1C-459.1 123 -512.4 11.6 -483.9 -74.1C-455.5 -159.9 -345.3 -220.1 -251 -297.6C-156.8 -375 -78.4 -469.8 1.7 -471.9C81.9 -473.9 163.7 -383.3 247.5 -304Z" fill="#041A3D"></path></g><g transform="translate(1511 1051)"><path d="M226.3 -269.7C298 -209.5 364.2 -142.7 396.9 -55.4C429.7 31.8 428.9 139.5 380.2 215.5C331.6 291.5 234.9 335.7 138.7 363C42.4 390.2 -53.5 400.3 -156.8 383.4C-260.2 366.4 -370.9 322.2 -426.3 239.7C-481.7 157.1 -481.7 36.1 -457.4 -76.9C-433.1 -189.9 -384.3 -294.9 -304 -353.7C-223.7 -412.4 -111.9 -424.8 -17.3 -404.2C77.3 -383.6 154.5 -329.9 226.3 -269.7Z" fill="#041A3D"></path></g><g transform="translate(3770 693)"><path d="M149.2 -176.6C189.9 -143.7 216.9 -93.4 213.5 -47.3C210.1 -1.3 176.2 40.4 149.5 86.1C122.9 131.9 103.5 181.6 68.3 199.4C33.1 217.3 -17.9 203.4 -68.7 186.1C-119.5 168.8 -170.1 148.1 -190.8 110.8C-211.6 73.5 -202.5 19.7 -191.7 -32.5C-180.9 -84.7 -168.4 -135.2 -136.2 -169.6C-103.9 -204 -52 -222.1 1.2 -223.5C54.3 -224.9 108.6 -209.5 149.2 -176.6Z" fill="#041A3D"></path></g><g transform="translate(3659 2141)"><path d="M123.2 -150.3C152.1 -122.6 162.8 -76.6 164.1 -34.1C165.5 8.4 157.5 47.4 141.1 86.6C124.6 125.9 99.6 165.4 62.9 183.2C26.3 201 -22 197.1 -61 178.2C-99.9 159.4 -129.6 125.7 -149 88C-168.4 50.3 -177.6 8.7 -168.3 -27.2C-159 -63.1 -131.2 -93.2 -100.1 -120.5C-69 -147.8 -34.5 -172.2 6.3 -179.7C47.2 -187.3 94.3 -177.9 123.2 -150.3Z" fill="#041A3D"></path></g><g transform="translate(294 313)"><path d="M201.1 -255.3C245.8 -202.1 257.1 -124.7 269 -48.7C280.8 27.3 293.3 101.9 267.5 161.8C241.7 221.8 177.7 267 110.9 281C44.1 295.1 -25.4 277.9 -105.3 261C-185.2 244.2 -275.5 227.7 -320.3 173.6C-365 119.4 -364.3 27.7 -337.9 -48.8C-311.6 -125.3 -259.7 -186.4 -199.1 -236.8C-138.5 -287.2 -69.2 -326.8 4.5 -332.2C78.2 -337.5 156.4 -308.5 201.1 -255.3Z" fill="#041A3D"></path></g><g transform="translate(2499 1726)"><path d="M64.7 -77.8C85.9 -59.2 106.7 -40.9 110.6 -19.4C114.5 2.1 101.5 26.6 85.8 45.5C70.1 64.4 51.6 77.7 30.9 85.4C10.3 93 -12.6 95.2 -30.7 87.3C-48.7 79.4 -62.1 61.5 -75.7 41.8C-89.4 22.1 -103.4 0.7 -104.8 -23.2C-106.3 -47.2 -95.2 -73.7 -75.6 -92.5C-56 -111.4 -28 -122.5 -3.2 -118.8C21.7 -115 43.4 -96.3 64.7 -77.8Z" fill="#041A3D"></path></g><g transform="translate(2720 72)"><path d="M160.9 -190.3C204.8 -154.8 234.4 -100.7 240.7 -45.3C247.1 10.1 230.2 66.6 201.5 116.2C172.7 165.8 132 208.3 82.1 227C32.3 245.8 -26.7 240.7 -83.4 222.8C-140.1 205 -194.5 174.3 -223.6 127.4C-252.7 80.5 -256.5 17.3 -237.7 -33.7C-219 -84.7 -177.5 -123.4 -134.1 -159.1C-90.7 -194.7 -45.4 -227.3 6.5 -235C58.4 -242.8 116.9 -225.9 160.9 -190.3Z" fill="#041A3D"></path></g></g></svg>