<svg id="visual" viewBox="0 0 3840 2160" width="3840" height="2160" xmlns="http://www.w3.org/2000/svg" xmlns:xlink="http://www.w3.org/1999/xlink" version="1.1"><g stroke-width="1" stroke-linejoin="bevel"><path d="M1916 1026L2233 725L1934 704Z" fill="#011d40" stroke="#011d40"></path><path d="M1916 1026L2279 1099L2233 725Z" fill="#011a3b" stroke="#011a3b"></path><path d="M1934 704L1541 743L1916 1026Z" fill="#011d40" stroke="#011d40"></path><path d="M1541 1144L1870 1402L1916 1026Z" fill="#06295d" stroke="#06295d"></path><path d="M1916 1026L1870 1402L2279 1099Z" fill="#011a3b" stroke="#011a3b"></path><path d="M2233 725L1952 316L1934 704Z" fill="#06295d" stroke="#06295d"></path><path d="M1934 704L1456 440L1541 743Z" fill="#011835" stroke="#011835"></path><path d="M1541 743L1541 1144L1916 1026Z" fill="#022451" stroke="#022451"></path><path d="M2703 793L2365 311L2233 725Z" fill="#02152f" stroke="#02152f"></path><path d="M2233 725L2365 311L1952 316Z" fill="#011835" stroke="#011835"></path><path d="M2672 1149L2703 793L2279 1099Z" fill="#02122a" stroke="#02122a"></path><path d="M2279 1099L2703 793L2233 725Z" fill="#011d40" stroke="#011d40"></path><path d="M2666 1341L2672 1149L2279 1099Z" fill="#011f46" stroke="#011f46"></path><path d="M1870 1402L2281 1500L2279 1099Z" fill="#06295d" stroke="#06295d"></path><path d="M1541 1144L1624 1419L1870 1402Z" fill="#011f46" stroke="#011f46"></path><path d="M1870 1402L1964 1769L2281 1500Z" fill="#02152f" stroke="#02152f"></path><path d="M1952 316L1456 440L1934 704Z" fill="#011d40" stroke="#011d40"></path><path d="M1541 743L1080 1041L1541 1144Z" fill="#011f46" stroke="#011f46"></path><path d="M2281 1500L2666 1341L2279 1099Z" fill="#02224c" stroke="#02224c"></path><path d="M3167 1144L3027 636L2703 793Z" fill="#011a3b" stroke="#011a3b"></path><path d="M2703 793L2722 387L2365 311Z" fill="#02122a" stroke="#02122a"></path><path d="M1456 440L1240 647L1541 743Z" fill="#011f46" stroke="#011f46"></path><path d="M1541 1144L1250 1437L1624 1419Z" fill="#02122a" stroke="#02122a"></path><path d="M2612 0L2217 0L2365 311Z" fill="#022451" stroke="#022451"></path><path d="M2365 311L2217 0L1952 316Z" fill="#011f46" stroke="#011f46"></path><path d="M1952 316L1439 0L1456 440Z" fill="#02224c" stroke="#02224c"></path><path d="M2217 0L1886 0L1952 316Z" fill="#011835" stroke="#011835"></path><path d="M1456 440L1194 322L1240 647Z" fill="#011a3b" stroke="#011a3b"></path><path d="M1624 1419L1964 1769L1870 1402Z" fill="#02122a" stroke="#02122a"></path><path d="M2281 1500L2701 1867L2666 1341Z" fill="#02224c" stroke="#02224c"></path><path d="M1964 1769L2273 1831L2281 1500Z" fill="#082c63" stroke="#082c63"></path><path d="M3167 1144L2703 793L2672 1149Z" fill="#022451" stroke="#022451"></path><path d="M2703 793L3027 636L2722 387Z" fill="#02122a" stroke="#02122a"></path><path d="M1080 1041L1250 1437L1541 1144Z" fill="#02152f" stroke="#02152f"></path><path d="M1624 1419L1498 1734L1964 1769Z" fill="#02152f" stroke="#02152f"></path><path d="M1240 647L1080 1041L1541 743Z" fill="#042757" stroke="#042757"></path><path d="M3006 0L2612 0L2722 387Z" fill="#011f46" stroke="#011f46"></path><path d="M2722 387L2612 0L2365 311Z" fill="#011a3b" stroke="#011a3b"></path><path d="M1250 1437L1498 1734L1624 1419Z" fill="#02224c" stroke="#02224c"></path><path d="M1964 1769L2015 2160L2273 1831Z" fill="#011d40" stroke="#011d40"></path><path d="M1439 0L1194 322L1456 440Z" fill="#02122a" stroke="#02122a"></path><path d="M1240 647L703 763L1080 1041Z" fill="#02122a" stroke="#02122a"></path><path d="M1886 0L1439 0L1952 316Z" fill="#02152f" stroke="#02152f"></path><path d="M2666 1341L3167 1144L2672 1149Z" fill="#011f46" stroke="#011f46"></path><path d="M3140 1514L3167 1144L2666 1341Z" fill="#02122a" stroke="#02122a"></path><path d="M3027 636L3048 306L2722 387Z" fill="#042757" stroke="#042757"></path><path d="M3420 686L3048 306L3027 636Z" fill="#011835" stroke="#011835"></path><path d="M2273 1831L2701 1867L2281 1500Z" fill="#02152f" stroke="#02152f"></path><path d="M1250 1437L1201 1744L1498 1734Z" fill="#011835" stroke="#011835"></path><path d="M1569 2160L2015 2160L1964 1769Z" fill="#011f46" stroke="#011f46"></path><path d="M2273 1831L2378 2160L2701 1867Z" fill="#042757" stroke="#042757"></path><path d="M771 1512L1201 1744L1250 1437Z" fill="#011d40" stroke="#011d40"></path><path d="M2978 1846L3140 1514L2666 1341Z" fill="#02224c" stroke="#02224c"></path><path d="M3485 0L3006 0L3048 306Z" fill="#082c63" stroke="#082c63"></path><path d="M3048 306L3006 0L2722 387Z" fill="#022451" stroke="#022451"></path><path d="M1569 2160L1964 1769L1498 1734Z" fill="#022451" stroke="#022451"></path><path d="M2015 2160L2378 2160L2273 1831Z" fill="#011f46" stroke="#011f46"></path><path d="M2701 1867L2978 1846L2666 1341Z" fill="#011a3b" stroke="#011a3b"></path><path d="M1439 0L1079 0L1194 322Z" fill="#011f46" stroke="#011f46"></path><path d="M767 441L703 763L1240 647Z" fill="#02224c" stroke="#02224c"></path><path d="M3006 2160L2978 1846L2701 1867Z" fill="#011a3b" stroke="#011a3b"></path><path d="M3527 1157L3420 686L3167 1144Z" fill="#042757" stroke="#042757"></path><path d="M3167 1144L3420 686L3027 636Z" fill="#011f46" stroke="#011f46"></path><path d="M767 441L1240 647L1194 322Z" fill="#011a3b" stroke="#011a3b"></path><path d="M1080 1041L771 1512L1250 1437Z" fill="#011a3b" stroke="#011a3b"></path><path d="M1079 0L767 441L1194 322Z" fill="#082c63" stroke="#082c63"></path><path d="M1201 1744L1569 2160L1498 1734Z" fill="#011835" stroke="#011835"></path><path d="M2378 2160L2626 2160L2701 1867Z" fill="#082c63" stroke="#082c63"></path><path d="M703 763L700 1167L1080 1041Z" fill="#082c63" stroke="#082c63"></path><path d="M700 1167L771 1512L1080 1041Z" fill="#011d40" stroke="#011d40"></path><path d="M1201 1744L1055 2160L1569 2160Z" fill="#011835" stroke="#011835"></path><path d="M3445 1439L3527 1157L3167 1144Z" fill="#02224c" stroke="#02224c"></path><path d="M3445 1439L3167 1144L3140 1514Z" fill="#042757" stroke="#042757"></path><path d="M3473 1837L3140 1514L2978 1846Z" fill="#011a3b" stroke="#011a3b"></path><path d="M3473 1837L3445 1439L3140 1514Z" fill="#06295d" stroke="#06295d"></path><path d="M3420 686L3538 287L3048 306Z" fill="#082c63" stroke="#082c63"></path><path d="M3840 712L3538 287L3420 686Z" fill="#042757" stroke="#042757"></path><path d="M2626 2160L3006 2160L2701 1867Z" fill="#02152f" stroke="#02152f"></path><path d="M767 441L382 665L703 763Z" fill="#011d40" stroke="#011d40"></path><path d="M1079 0L728 0L767 441Z" fill="#02224c" stroke="#02224c"></path><path d="M746 1853L1055 2160L1201 1744Z" fill="#022451" stroke="#022451"></path><path d="M442 1875L746 1853L771 1512Z" fill="#011835" stroke="#011835"></path><path d="M771 1512L746 1853L1201 1744Z" fill="#02122a" stroke="#02122a"></path><path d="M3538 287L3485 0L3048 306Z" fill="#011a3b" stroke="#011a3b"></path><path d="M3006 2160L3473 1837L2978 1846Z" fill="#011835" stroke="#011835"></path><path d="M3840 1437L3840 990L3527 1157Z" fill="#011835" stroke="#011835"></path><path d="M294 268L382 665L767 441Z" fill="#011f46" stroke="#011f46"></path><path d="M703 763L332 1071L700 1167Z" fill="#02122a" stroke="#02122a"></path><path d="M700 1167L399 1425L771 1512Z" fill="#06295d" stroke="#06295d"></path><path d="M382 665L332 1071L703 763Z" fill="#02152f" stroke="#02152f"></path><path d="M332 1071L399 1425L700 1167Z" fill="#011a3b" stroke="#011a3b"></path><path d="M3840 1437L3527 1157L3445 1439Z" fill="#06295d" stroke="#06295d"></path><path d="M3527 1157L3840 990L3420 686Z" fill="#02224c" stroke="#02224c"></path><path d="M3538 287L3840 0L3485 0Z" fill="#02122a" stroke="#02122a"></path><path d="M3840 990L3840 712L3420 686Z" fill="#082c63" stroke="#082c63"></path><path d="M746 1853L775 2160L1055 2160Z" fill="#011835" stroke="#011835"></path><path d="M442 1875L775 2160L746 1853Z" fill="#022451" stroke="#022451"></path><path d="M3840 712L3840 316L3538 287Z" fill="#02224c" stroke="#02224c"></path><path d="M3473 1837L3840 1437L3445 1439Z" fill="#011d40" stroke="#011d40"></path><path d="M728 0L294 268L767 441Z" fill="#02122a" stroke="#02122a"></path><path d="M382 665L0 1028L332 1071Z" fill="#022451" stroke="#022451"></path><path d="M3006 2160L3488 2160L3473 1837Z" fill="#011835" stroke="#011835"></path><path d="M3473 1837L3840 1844L3840 1437Z" fill="#082c63" stroke="#082c63"></path><path d="M0 1794L442 1875L399 1425Z" fill="#042757" stroke="#042757"></path><path d="M399 1425L442 1875L771 1512Z" fill="#022451" stroke="#022451"></path><path d="M3840 316L3840 0L3538 287Z" fill="#02224c" stroke="#02224c"></path><path d="M728 0L288 0L294 268Z" fill="#042757" stroke="#042757"></path><path d="M3488 2160L3840 1844L3473 1837Z" fill="#082c63" stroke="#082c63"></path><path d="M0 651L0 1028L382 665Z" fill="#042757" stroke="#042757"></path><path d="M332 1071L0 1387L399 1425Z" fill="#022451" stroke="#022451"></path><path d="M0 651L382 665L0 416Z" fill="#082c63" stroke="#082c63"></path><path d="M0 416L382 665L294 268Z" fill="#022451" stroke="#022451"></path><path d="M0 2160L406 2160L442 1875Z" fill="#06295d" stroke="#06295d"></path><path d="M442 1875L406 2160L775 2160Z" fill="#02152f" stroke="#02152f"></path><path d="M0 0L0 416L294 268Z" fill="#082c63" stroke="#082c63"></path><path d="M0 1028L0 1387L332 1071Z" fill="#011f46" stroke="#011f46"></path><path d="M3488 2160L3840 2160L3840 1844Z" fill="#02152f" stroke="#02152f"></path><path d="M288 0L0 0L294 268Z" fill="#011d40" stroke="#011d40"></path><path d="M0 1387L0 1794L399 1425Z" fill="#02122a" stroke="#02122a"></path><path d="M0 1794L0 2160L442 1875Z" fill="#06295d" stroke="#06295d"></path></g></svg>