<svg id="visual" viewBox="0 0 3840 2160" width="3840" height="2160" xmlns="http://www.w3.org/2000/svg" xmlns:xlink="http://www.w3.org/1999/xlink" version="1.1"><path d="M0 303L58.2 288.7C116.3 274.3 232.7 245.7 349 353.7C465.3 461.7 581.7 706.3 698 753.2C814.3 800 930.7 649 1047 515.8C1163.3 382.7 1279.7 267.3 1396 220.5C1512.3 173.7 1628.7 195.3 1745.2 253C1861.7 310.7 1978.3 404.3 2094.8 548.3C2211.3 692.3 2327.7 886.7 2444 850.7C2560.3 814.7 2676.7 548.3 2793 537.5C2909.3 526.7 3025.7 771.3 3142 742.5C3258.3 713.7 3374.7 411.3 3491 274.5C3607.3 137.7 3723.7 166.3 3781.8 180.7L3840 195L3840 0L3781.8 0C3723.7 0 3607.3 0 3491 0C3374.7 0 3258.3 0 3142 0C3025.7 0 2909.3 0 2793 0C2676.7 0 2560.3 0 2444 0C2327.7 0 2211.3 0 2094.8 0C1978.3 0 1861.7 0 1745.2 0C1628.7 0 1512.3 0 1396 0C1279.7 0 1163.3 0 1047 0C930.7 0 814.3 0 698 0C581.7 0 465.3 0 349 0C232.7 0 116.3 0 58.2 0L0 0Z" fill="#02122a"></path><path d="M0 1967L58.2 1790.5C116.3 1614 232.7 1261 349 1095.3C465.3 929.7 581.7 951.3 698 1055.8C814.3 1160.3 930.7 1347.7 1047 1315.3C1163.3 1283 1279.7 1031 1396 926.5C1512.3 822 1628.7 865 1745.2 901C1861.7 937 1978.3 966 2094.8 1038C2211.3 1110 2327.7 1225 2444 1347.3C2560.3 1469.7 2676.7 1599.3 2793 1585C2909.3 1570.7 3025.7 1412.3 3142 1308C3258.3 1203.7 3374.7 1153.3 3491 1084.8C3607.3 1016.3 3723.7 929.7 3781.8 886.3L3840 843L3840 193L3781.8 178.7C3723.7 164.3 3607.3 135.7 3491 272.5C3374.7 409.3 3258.3 711.7 3142 740.5C3025.7 769.3 2909.3 524.7 2793 535.5C2676.7 546.3 2560.3 812.7 2444 848.7C2327.7 884.7 2211.3 690.3 2094.8 546.3C1978.3 402.3 1861.7 308.7 1745.2 251C1628.7 193.3 1512.3 171.7 1396 218.5C1279.7 265.3 1163.3 380.7 1047 513.8C930.7 647 814.3 798 698 751.2C581.7 704.3 465.3 459.7 349 351.7C232.7 243.7 116.3 272.3 58.2 286.7L0 301Z" fill="#021733"></path><path d="M0 1988L58.2 1844C116.3 1700 232.7 1412 349 1354.5C465.3 1297 581.7 1470 698 1549.2C814.3 1628.3 930.7 1613.7 1047 1552.3C1163.3 1491 1279.7 1383 1396 1339.8C1512.3 1296.7 1628.7 1318.3 1745.2 1325.7C1861.7 1333 1978.3 1326 2094.8 1369.2C2211.3 1412.3 2327.7 1505.7 2444 1610C2560.3 1714.3 2676.7 1829.7 2793 1808.2C2909.3 1786.7 3025.7 1628.3 3142 1570.7C3258.3 1513 3374.7 1556 3491 1538C3607.3 1520 3723.7 1441 3781.8 1401.5L3840 1362L3840 841L3781.8 884.3C3723.7 927.7 3607.3 1014.3 3491 1082.8C3374.7 1151.3 3258.3 1201.7 3142 1306C3025.7 1410.3 2909.3 1568.7 2793 1583C2676.7 1597.3 2560.3 1467.7 2444 1345.3C2327.7 1223 2211.3 1108 2094.8 1036C1978.3 964 1861.7 935 1745.2 899C1628.7 863 1512.3 820 1396 924.5C1279.7 1029 1163.3 1281 1047 1313.3C930.7 1345.7 814.3 1158.3 698 1053.8C581.7 949.3 465.3 927.7 349 1093.3C232.7 1259 116.3 1612 58.2 1788.5L0 1965Z" fill="#021b3d"></path><path d="M0 2031L58.2 1987.8C116.3 1944.7 232.7 1858.3 349 1876.3C465.3 1894.3 581.7 2016.7 698 2052.7C814.3 2088.7 930.7 2038.3 1047 2016.8C1163.3 1995.3 1279.7 2002.7 1396 2009.8C1512.3 2017 1628.7 2024 1745.2 2031.2C1861.7 2038.3 1978.3 2045.7 2094.8 1999C2211.3 1952.3 2327.7 1851.7 2444 1837.3C2560.3 1823 2676.7 1895 2793 1887.7C2909.3 1880.3 3025.7 1793.7 3142 1761.2C3258.3 1728.7 3374.7 1750.3 3491 1804.3C3607.3 1858.3 3723.7 1944.7 3781.8 1987.8L3840 2031L3840 1360L3781.8 1399.5C3723.7 1439 3607.3 1518 3491 1536C3374.7 1554 3258.3 1511 3142 1568.7C3025.7 1626.3 2909.3 1784.7 2793 1806.2C2676.7 1827.7 2560.3 1712.3 2444 1608C2327.7 1503.7 2211.3 1410.3 2094.8 1367.2C1978.3 1324 1861.7 1331 1745.2 1323.7C1628.7 1316.3 1512.3 1294.7 1396 1337.8C1279.7 1381 1163.3 1489 1047 1550.3C930.7 1611.7 814.3 1626.3 698 1547.2C581.7 1468 465.3 1295 349 1352.5C232.7 1410 116.3 1698 58.2 1842L0 1986Z" fill="#031f46"></path><path d="M0 2161L58.2 2161C116.3 2161 232.7 2161 349 2161C465.3 2161 581.7 2161 698 2161C814.3 2161 930.7 2161 1047 2161C1163.3 2161 1279.7 2161 1396 2161C1512.3 2161 1628.7 2161 1745.2 2161C1861.7 2161 1978.3 2161 2094.8 2161C2211.3 2161 2327.7 2161 2444 2161C2560.3 2161 2676.7 2161 2793 2161C2909.3 2161 3025.7 2161 3142 2161C3258.3 2161 3374.7 2161 3491 2161C3607.3 2161 3723.7 2161 3781.8 2161L3840 2161L3840 2029L3781.8 1985.8C3723.7 1942.7 3607.3 1856.3 3491 1802.3C3374.7 1748.3 3258.3 1726.7 3142 1759.2C3025.7 1791.7 2909.3 1878.3 2793 1885.7C2676.7 1893 2560.3 1821 2444 1835.3C2327.7 1849.7 2211.3 1950.3 2094.8 1997C1978.3 2043.7 1861.7 2036.3 1745.2 2029.2C1628.7 2022 1512.3 2015 1396 2007.8C1279.7 2000.7 1163.3 1993.3 1047 2014.8C930.7 2036.3 814.3 2086.7 698 2050.7C581.7 2014.7 465.3 1892.3 349 1874.3C232.7 1856.3 116.3 1942.7 58.2 1985.8L0 2029Z" fill="#062350"></path></svg>